<mxfile host="app.diagrams.net" modified="2022-05-12T20:10:10.828Z" agent="5.0 (Windows NT 10.0; Win64; x64) AppleWebKit/537.36 (KHTML, like Gecko) Chrome/101.0.4951.64 Safari/537.36" etag="IJfT9MrPGs9oPV0kIAU7" version="18.0.1" type="github">
  <diagram id="i3tFpG3AqxqA9fiToIRN" name="Page-1">
    <mxGraphModel dx="1695" dy="885" grid="0" gridSize="10" guides="1" tooltips="1" connect="1" arrows="1" fold="1" page="0" pageScale="1" pageWidth="300" pageHeight="70" math="0" shadow="0">
      <root>
        <mxCell id="0" />
        <mxCell id="1" parent="0" />
        <mxCell id="njAnbFwUIwRLpeYEv5zp-121" style="edgeStyle=orthogonalEdgeStyle;rounded=0;orthogonalLoop=1;jettySize=auto;html=1;exitX=0.5;exitY=1;exitDx=0;exitDy=0;entryX=0.5;entryY=0;entryDx=0;entryDy=0;fontFamily=Times New Roman;fontSize=18;" edge="1" parent="1" source="njAnbFwUIwRLpeYEv5zp-18" target="njAnbFwUIwRLpeYEv5zp-59">
          <mxGeometry relative="1" as="geometry" />
        </mxCell>
        <mxCell id="njAnbFwUIwRLpeYEv5zp-18" value="&lt;font style=&quot;font-size: 18px;&quot;&gt;1&lt;/font&gt;" style="whiteSpace=wrap;html=1;aspect=fixed;strokeColor=#000000;strokeWidth=1;fillColor=none;gradientColor=#ffffff;" vertex="1" parent="1">
          <mxGeometry x="-6" y="-24" width="49" height="49" as="geometry" />
        </mxCell>
        <mxCell id="njAnbFwUIwRLpeYEv5zp-19" value="&lt;span style=&quot;font-size: 18px;&quot;&gt;1&lt;/span&gt;" style="whiteSpace=wrap;html=1;aspect=fixed;strokeColor=#000000;strokeWidth=1;fillColor=none;gradientColor=#ffffff;" vertex="1" parent="1">
          <mxGeometry x="51" y="-24" width="49" height="49" as="geometry" />
        </mxCell>
        <mxCell id="njAnbFwUIwRLpeYEv5zp-20" value="&lt;span style=&quot;font-size: 18px;&quot;&gt;0&lt;/span&gt;" style="whiteSpace=wrap;html=1;aspect=fixed;strokeColor=#000000;strokeWidth=1;fillColor=none;gradientColor=#ffffff;" vertex="1" parent="1">
          <mxGeometry x="108" y="-24" width="49" height="49" as="geometry" />
        </mxCell>
        <mxCell id="njAnbFwUIwRLpeYEv5zp-21" value="&lt;span style=&quot;font-size: 18px;&quot;&gt;1&lt;/span&gt;" style="whiteSpace=wrap;html=1;aspect=fixed;strokeColor=#000000;strokeWidth=1;fillColor=none;gradientColor=#ffffff;" vertex="1" parent="1">
          <mxGeometry x="165" y="-24" width="49" height="49" as="geometry" />
        </mxCell>
        <mxCell id="njAnbFwUIwRLpeYEv5zp-22" value="&lt;span style=&quot;font-size: 18px;&quot;&gt;0&lt;/span&gt;" style="whiteSpace=wrap;html=1;aspect=fixed;strokeColor=#000000;strokeWidth=1;fillColor=none;gradientColor=#ffffff;" vertex="1" parent="1">
          <mxGeometry x="222" y="-24" width="49" height="49" as="geometry" />
        </mxCell>
        <mxCell id="njAnbFwUIwRLpeYEv5zp-23" value="&lt;span style=&quot;font-size: 18px;&quot;&gt;1&lt;/span&gt;" style="whiteSpace=wrap;html=1;aspect=fixed;strokeColor=#000000;strokeWidth=1;fillColor=none;gradientColor=#ffffff;" vertex="1" parent="1">
          <mxGeometry x="279" y="-24" width="49" height="49" as="geometry" />
        </mxCell>
        <mxCell id="njAnbFwUIwRLpeYEv5zp-24" value="&lt;span style=&quot;font-size: 18px;&quot;&gt;0&lt;/span&gt;" style="whiteSpace=wrap;html=1;aspect=fixed;strokeColor=#000000;strokeWidth=1;fillColor=none;gradientColor=#ffffff;" vertex="1" parent="1">
          <mxGeometry x="336" y="-24" width="49" height="49" as="geometry" />
        </mxCell>
        <mxCell id="njAnbFwUIwRLpeYEv5zp-25" value="&lt;span style=&quot;font-size: 18px;&quot;&gt;0&lt;/span&gt;" style="whiteSpace=wrap;html=1;aspect=fixed;strokeColor=#000000;strokeWidth=1;fillColor=none;gradientColor=#ffffff;" vertex="1" parent="1">
          <mxGeometry x="393" y="-24" width="49" height="49" as="geometry" />
        </mxCell>
        <mxCell id="njAnbFwUIwRLpeYEv5zp-27" value="&lt;b&gt;&lt;font style=&quot;font-size: 14px;&quot;&gt;7&lt;/font&gt;&lt;/b&gt;" style="text;html=1;strokeColor=none;fillColor=none;align=center;verticalAlign=middle;whiteSpace=wrap;rounded=0;" vertex="1" parent="1">
          <mxGeometry x="4" y="-53" width="29" height="27" as="geometry" />
        </mxCell>
        <mxCell id="njAnbFwUIwRLpeYEv5zp-28" value="&lt;b&gt;&lt;font style=&quot;font-size: 14px;&quot;&gt;6&lt;/font&gt;&lt;/b&gt;" style="text;html=1;strokeColor=none;fillColor=none;align=center;verticalAlign=middle;whiteSpace=wrap;rounded=0;" vertex="1" parent="1">
          <mxGeometry x="61" y="-53" width="29" height="27" as="geometry" />
        </mxCell>
        <mxCell id="njAnbFwUIwRLpeYEv5zp-29" value="&lt;b&gt;&lt;font style=&quot;font-size: 14px;&quot;&gt;5&lt;/font&gt;&lt;/b&gt;" style="text;html=1;strokeColor=none;fillColor=none;align=center;verticalAlign=middle;whiteSpace=wrap;rounded=0;" vertex="1" parent="1">
          <mxGeometry x="118" y="-53" width="29" height="27" as="geometry" />
        </mxCell>
        <mxCell id="njAnbFwUIwRLpeYEv5zp-30" value="&lt;b&gt;&lt;font style=&quot;font-size: 14px;&quot;&gt;4&lt;/font&gt;&lt;/b&gt;" style="text;html=1;strokeColor=none;fillColor=none;align=center;verticalAlign=middle;whiteSpace=wrap;rounded=0;" vertex="1" parent="1">
          <mxGeometry x="175" y="-53" width="29" height="27" as="geometry" />
        </mxCell>
        <mxCell id="njAnbFwUIwRLpeYEv5zp-31" value="&lt;b&gt;&lt;font style=&quot;font-size: 14px;&quot;&gt;3&lt;/font&gt;&lt;/b&gt;" style="text;html=1;strokeColor=none;fillColor=none;align=center;verticalAlign=middle;whiteSpace=wrap;rounded=0;" vertex="1" parent="1">
          <mxGeometry x="232" y="-53" width="29" height="27" as="geometry" />
        </mxCell>
        <mxCell id="njAnbFwUIwRLpeYEv5zp-33" value="&lt;b&gt;&lt;font style=&quot;font-size: 14px;&quot;&gt;2&lt;/font&gt;&lt;/b&gt;" style="text;html=1;strokeColor=none;fillColor=none;align=center;verticalAlign=middle;whiteSpace=wrap;rounded=0;" vertex="1" parent="1">
          <mxGeometry x="289" y="-53" width="29" height="27" as="geometry" />
        </mxCell>
        <mxCell id="njAnbFwUIwRLpeYEv5zp-34" value="&lt;b&gt;&lt;font style=&quot;font-size: 14px;&quot;&gt;1&lt;/font&gt;&lt;/b&gt;" style="text;html=1;strokeColor=none;fillColor=none;align=center;verticalAlign=middle;whiteSpace=wrap;rounded=0;" vertex="1" parent="1">
          <mxGeometry x="346" y="-53" width="29" height="27" as="geometry" />
        </mxCell>
        <mxCell id="njAnbFwUIwRLpeYEv5zp-35" value="&lt;b&gt;&lt;font style=&quot;font-size: 14px;&quot;&gt;0&lt;/font&gt;&lt;/b&gt;" style="text;html=1;strokeColor=none;fillColor=none;align=center;verticalAlign=middle;whiteSpace=wrap;rounded=0;" vertex="1" parent="1">
          <mxGeometry x="403" y="-53" width="29" height="27" as="geometry" />
        </mxCell>
        <mxCell id="njAnbFwUIwRLpeYEv5zp-52" value="&lt;span style=&quot;font-size: 18px;&quot;&gt;1&lt;/span&gt;" style="whiteSpace=wrap;html=1;aspect=fixed;strokeColor=#000000;strokeWidth=1;fillColor=none;gradientColor=#ffffff;" vertex="1" parent="1">
          <mxGeometry x="-6" y="214" width="49" height="49" as="geometry" />
        </mxCell>
        <mxCell id="njAnbFwUIwRLpeYEv5zp-53" value="&lt;span style=&quot;font-size: 18px;&quot;&gt;0&lt;/span&gt;" style="whiteSpace=wrap;html=1;aspect=fixed;strokeColor=#000000;strokeWidth=1;fillColor=none;gradientColor=#ffffff;" vertex="1" parent="1">
          <mxGeometry x="51" y="214" width="49" height="49" as="geometry" />
        </mxCell>
        <mxCell id="njAnbFwUIwRLpeYEv5zp-54" value="&lt;span style=&quot;font-size: 18px;&quot;&gt;1&lt;/span&gt;" style="whiteSpace=wrap;html=1;aspect=fixed;strokeColor=#000000;strokeWidth=1;fillColor=none;gradientColor=#ffffff;" vertex="1" parent="1">
          <mxGeometry x="108" y="214" width="49" height="49" as="geometry" />
        </mxCell>
        <mxCell id="njAnbFwUIwRLpeYEv5zp-55" value="&lt;span style=&quot;font-size: 18px;&quot;&gt;0&lt;/span&gt;" style="whiteSpace=wrap;html=1;aspect=fixed;strokeColor=#000000;strokeWidth=1;fillColor=none;gradientColor=#ffffff;" vertex="1" parent="1">
          <mxGeometry x="165" y="214" width="49" height="49" as="geometry" />
        </mxCell>
        <mxCell id="njAnbFwUIwRLpeYEv5zp-56" value="&lt;span style=&quot;font-size: 18px;&quot;&gt;1&lt;/span&gt;" style="whiteSpace=wrap;html=1;aspect=fixed;strokeColor=#000000;strokeWidth=1;fillColor=none;gradientColor=#ffffff;" vertex="1" parent="1">
          <mxGeometry x="222" y="214" width="49" height="49" as="geometry" />
        </mxCell>
        <mxCell id="njAnbFwUIwRLpeYEv5zp-57" value="&lt;span style=&quot;font-size: 18px;&quot;&gt;0&lt;/span&gt;" style="whiteSpace=wrap;html=1;aspect=fixed;strokeColor=#000000;strokeWidth=1;fillColor=none;gradientColor=#ffffff;" vertex="1" parent="1">
          <mxGeometry x="279" y="214" width="49" height="49" as="geometry" />
        </mxCell>
        <mxCell id="njAnbFwUIwRLpeYEv5zp-58" value="&lt;span style=&quot;font-size: 18px;&quot;&gt;0&lt;/span&gt;" style="whiteSpace=wrap;html=1;aspect=fixed;strokeColor=#000000;strokeWidth=1;fillColor=none;gradientColor=#ffffff;" vertex="1" parent="1">
          <mxGeometry x="336" y="214" width="49" height="49" as="geometry" />
        </mxCell>
        <mxCell id="njAnbFwUIwRLpeYEv5zp-59" value="&lt;span style=&quot;font-size: 18px;&quot;&gt;1&lt;/span&gt;" style="whiteSpace=wrap;html=1;aspect=fixed;strokeColor=#000000;strokeWidth=1;fillColor=none;gradientColor=#ffffff;" vertex="1" parent="1">
          <mxGeometry x="393" y="214" width="49" height="49" as="geometry" />
        </mxCell>
        <mxCell id="njAnbFwUIwRLpeYEv5zp-63" value="" style="endArrow=classic;html=1;rounded=0;fontSize=18;exitX=0.5;exitY=1;exitDx=0;exitDy=0;entryX=0.5;entryY=0;entryDx=0;entryDy=0;" edge="1" parent="1" source="njAnbFwUIwRLpeYEv5zp-19" target="njAnbFwUIwRLpeYEv5zp-52">
          <mxGeometry width="50" height="50" relative="1" as="geometry">
            <mxPoint x="92" y="112" as="sourcePoint" />
            <mxPoint x="142" y="62" as="targetPoint" />
          </mxGeometry>
        </mxCell>
        <mxCell id="njAnbFwUIwRLpeYEv5zp-64" value="" style="endArrow=classic;html=1;rounded=0;fontSize=18;exitX=0.5;exitY=1;exitDx=0;exitDy=0;entryX=0.5;entryY=0;entryDx=0;entryDy=0;" edge="1" parent="1" source="njAnbFwUIwRLpeYEv5zp-20" target="njAnbFwUIwRLpeYEv5zp-53">
          <mxGeometry width="50" height="50" relative="1" as="geometry">
            <mxPoint x="85.5" y="35" as="sourcePoint" />
            <mxPoint x="28.5" y="224" as="targetPoint" />
          </mxGeometry>
        </mxCell>
        <mxCell id="njAnbFwUIwRLpeYEv5zp-65" value="" style="endArrow=classic;html=1;rounded=0;fontSize=18;exitX=0.5;exitY=1;exitDx=0;exitDy=0;entryX=0.5;entryY=0;entryDx=0;entryDy=0;" edge="1" parent="1" source="njAnbFwUIwRLpeYEv5zp-21" target="njAnbFwUIwRLpeYEv5zp-54">
          <mxGeometry width="50" height="50" relative="1" as="geometry">
            <mxPoint x="95.5" y="45" as="sourcePoint" />
            <mxPoint x="38.5" y="234" as="targetPoint" />
          </mxGeometry>
        </mxCell>
        <mxCell id="njAnbFwUIwRLpeYEv5zp-66" value="" style="endArrow=classic;html=1;rounded=0;fontSize=18;exitX=0.5;exitY=1;exitDx=0;exitDy=0;entryX=0.5;entryY=0;entryDx=0;entryDy=0;" edge="1" parent="1" source="njAnbFwUIwRLpeYEv5zp-22" target="njAnbFwUIwRLpeYEv5zp-55">
          <mxGeometry width="50" height="50" relative="1" as="geometry">
            <mxPoint x="105.5" y="55" as="sourcePoint" />
            <mxPoint x="48.5" y="244" as="targetPoint" />
          </mxGeometry>
        </mxCell>
        <mxCell id="njAnbFwUIwRLpeYEv5zp-67" value="" style="endArrow=classic;html=1;rounded=0;fontSize=18;exitX=0.5;exitY=1;exitDx=0;exitDy=0;entryX=0.5;entryY=0;entryDx=0;entryDy=0;" edge="1" parent="1" source="njAnbFwUIwRLpeYEv5zp-23" target="njAnbFwUIwRLpeYEv5zp-56">
          <mxGeometry width="50" height="50" relative="1" as="geometry">
            <mxPoint x="115.5" y="65" as="sourcePoint" />
            <mxPoint x="58.5" y="254" as="targetPoint" />
          </mxGeometry>
        </mxCell>
        <mxCell id="njAnbFwUIwRLpeYEv5zp-68" value="" style="endArrow=classic;html=1;rounded=0;fontSize=18;exitX=0.5;exitY=1;exitDx=0;exitDy=0;entryX=0.5;entryY=0;entryDx=0;entryDy=0;" edge="1" parent="1" source="njAnbFwUIwRLpeYEv5zp-24" target="njAnbFwUIwRLpeYEv5zp-57">
          <mxGeometry width="50" height="50" relative="1" as="geometry">
            <mxPoint x="125.5" y="75" as="sourcePoint" />
            <mxPoint x="68.5" y="264" as="targetPoint" />
          </mxGeometry>
        </mxCell>
        <mxCell id="njAnbFwUIwRLpeYEv5zp-69" value="" style="endArrow=classic;html=1;rounded=0;fontSize=18;exitX=0.5;exitY=1;exitDx=0;exitDy=0;entryX=0.5;entryY=0;entryDx=0;entryDy=0;" edge="1" parent="1" source="njAnbFwUIwRLpeYEv5zp-25" target="njAnbFwUIwRLpeYEv5zp-58">
          <mxGeometry width="50" height="50" relative="1" as="geometry">
            <mxPoint x="135.5" y="85" as="sourcePoint" />
            <mxPoint x="78.5" y="274" as="targetPoint" />
          </mxGeometry>
        </mxCell>
        <mxCell id="njAnbFwUIwRLpeYEv5zp-73" value="&lt;font style=&quot;font-size: 18px;&quot; face=&quot;Times New Roman&quot;&gt;&lt;i&gt;Arman Kenesuly&lt;br&gt;Circular shift&lt;br&gt;&lt;/i&gt;&lt;/font&gt;" style="text;html=1;strokeColor=none;fillColor=none;align=center;verticalAlign=middle;whiteSpace=wrap;rounded=0;fontSize=18;" vertex="1" parent="1">
          <mxGeometry x="503" y="-83" width="160" height="30" as="geometry" />
        </mxCell>
        <mxCell id="njAnbFwUIwRLpeYEv5zp-74" value="&lt;font style=&quot;font-size: 18px;&quot;&gt;1&lt;/font&gt;" style="whiteSpace=wrap;html=1;aspect=fixed;strokeColor=#000000;strokeWidth=1;fillColor=none;gradientColor=#ffffff;" vertex="1" parent="1">
          <mxGeometry x="723" y="-24" width="49" height="49" as="geometry" />
        </mxCell>
        <mxCell id="njAnbFwUIwRLpeYEv5zp-75" value="&lt;span style=&quot;font-size: 18px;&quot;&gt;1&lt;/span&gt;" style="whiteSpace=wrap;html=1;aspect=fixed;strokeColor=#000000;strokeWidth=1;fillColor=none;gradientColor=#ffffff;" vertex="1" parent="1">
          <mxGeometry x="780" y="-24" width="49" height="49" as="geometry" />
        </mxCell>
        <mxCell id="njAnbFwUIwRLpeYEv5zp-76" value="&lt;span style=&quot;font-size: 18px;&quot;&gt;0&lt;/span&gt;" style="whiteSpace=wrap;html=1;aspect=fixed;strokeColor=#000000;strokeWidth=1;fillColor=none;gradientColor=#ffffff;" vertex="1" parent="1">
          <mxGeometry x="837" y="-24" width="49" height="49" as="geometry" />
        </mxCell>
        <mxCell id="njAnbFwUIwRLpeYEv5zp-77" value="&lt;span style=&quot;font-size: 18px;&quot;&gt;1&lt;/span&gt;" style="whiteSpace=wrap;html=1;aspect=fixed;strokeColor=#000000;strokeWidth=1;fillColor=none;gradientColor=#ffffff;" vertex="1" parent="1">
          <mxGeometry x="894" y="-24" width="49" height="49" as="geometry" />
        </mxCell>
        <mxCell id="njAnbFwUIwRLpeYEv5zp-78" value="&lt;span style=&quot;font-size: 18px;&quot;&gt;0&lt;/span&gt;" style="whiteSpace=wrap;html=1;aspect=fixed;strokeColor=#000000;strokeWidth=1;fillColor=none;gradientColor=#ffffff;" vertex="1" parent="1">
          <mxGeometry x="951" y="-24" width="49" height="49" as="geometry" />
        </mxCell>
        <mxCell id="njAnbFwUIwRLpeYEv5zp-79" value="&lt;span style=&quot;font-size: 18px;&quot;&gt;1&lt;/span&gt;" style="whiteSpace=wrap;html=1;aspect=fixed;strokeColor=#000000;strokeWidth=1;fillColor=none;gradientColor=#ffffff;" vertex="1" parent="1">
          <mxGeometry x="1008" y="-24" width="49" height="49" as="geometry" />
        </mxCell>
        <mxCell id="njAnbFwUIwRLpeYEv5zp-80" value="&lt;span style=&quot;font-size: 18px;&quot;&gt;0&lt;/span&gt;" style="whiteSpace=wrap;html=1;aspect=fixed;strokeColor=#000000;strokeWidth=1;fillColor=none;gradientColor=#ffffff;" vertex="1" parent="1">
          <mxGeometry x="1065" y="-24" width="49" height="49" as="geometry" />
        </mxCell>
        <mxCell id="njAnbFwUIwRLpeYEv5zp-122" style="edgeStyle=orthogonalEdgeStyle;rounded=0;orthogonalLoop=1;jettySize=auto;html=1;exitX=0.5;exitY=1;exitDx=0;exitDy=0;entryX=0.5;entryY=0;entryDx=0;entryDy=0;fontFamily=Times New Roman;fontSize=18;" edge="1" parent="1" source="njAnbFwUIwRLpeYEv5zp-81" target="njAnbFwUIwRLpeYEv5zp-90">
          <mxGeometry relative="1" as="geometry" />
        </mxCell>
        <mxCell id="njAnbFwUIwRLpeYEv5zp-81" value="&lt;span style=&quot;font-size: 18px;&quot;&gt;0&lt;/span&gt;" style="whiteSpace=wrap;html=1;aspect=fixed;strokeColor=#000000;strokeWidth=1;fillColor=none;gradientColor=#ffffff;" vertex="1" parent="1">
          <mxGeometry x="1122" y="-24" width="49" height="49" as="geometry" />
        </mxCell>
        <mxCell id="njAnbFwUIwRLpeYEv5zp-82" value="&lt;b&gt;&lt;font style=&quot;font-size: 14px;&quot;&gt;7&lt;/font&gt;&lt;/b&gt;" style="text;html=1;strokeColor=none;fillColor=none;align=center;verticalAlign=middle;whiteSpace=wrap;rounded=0;" vertex="1" parent="1">
          <mxGeometry x="733" y="-53" width="29" height="27" as="geometry" />
        </mxCell>
        <mxCell id="njAnbFwUIwRLpeYEv5zp-83" value="&lt;b&gt;&lt;font style=&quot;font-size: 14px;&quot;&gt;6&lt;/font&gt;&lt;/b&gt;" style="text;html=1;strokeColor=none;fillColor=none;align=center;verticalAlign=middle;whiteSpace=wrap;rounded=0;" vertex="1" parent="1">
          <mxGeometry x="790" y="-53" width="29" height="27" as="geometry" />
        </mxCell>
        <mxCell id="njAnbFwUIwRLpeYEv5zp-84" value="&lt;b&gt;&lt;font style=&quot;font-size: 14px;&quot;&gt;5&lt;/font&gt;&lt;/b&gt;" style="text;html=1;strokeColor=none;fillColor=none;align=center;verticalAlign=middle;whiteSpace=wrap;rounded=0;" vertex="1" parent="1">
          <mxGeometry x="847" y="-53" width="29" height="27" as="geometry" />
        </mxCell>
        <mxCell id="njAnbFwUIwRLpeYEv5zp-85" value="&lt;b&gt;&lt;font style=&quot;font-size: 14px;&quot;&gt;4&lt;/font&gt;&lt;/b&gt;" style="text;html=1;strokeColor=none;fillColor=none;align=center;verticalAlign=middle;whiteSpace=wrap;rounded=0;" vertex="1" parent="1">
          <mxGeometry x="904" y="-53" width="29" height="27" as="geometry" />
        </mxCell>
        <mxCell id="njAnbFwUIwRLpeYEv5zp-86" value="&lt;b&gt;&lt;font style=&quot;font-size: 14px;&quot;&gt;3&lt;/font&gt;&lt;/b&gt;" style="text;html=1;strokeColor=none;fillColor=none;align=center;verticalAlign=middle;whiteSpace=wrap;rounded=0;" vertex="1" parent="1">
          <mxGeometry x="961" y="-53" width="29" height="27" as="geometry" />
        </mxCell>
        <mxCell id="njAnbFwUIwRLpeYEv5zp-87" value="&lt;b&gt;&lt;font style=&quot;font-size: 14px;&quot;&gt;2&lt;/font&gt;&lt;/b&gt;" style="text;html=1;strokeColor=none;fillColor=none;align=center;verticalAlign=middle;whiteSpace=wrap;rounded=0;" vertex="1" parent="1">
          <mxGeometry x="1018" y="-53" width="29" height="27" as="geometry" />
        </mxCell>
        <mxCell id="njAnbFwUIwRLpeYEv5zp-88" value="&lt;b&gt;&lt;font style=&quot;font-size: 14px;&quot;&gt;1&lt;/font&gt;&lt;/b&gt;" style="text;html=1;strokeColor=none;fillColor=none;align=center;verticalAlign=middle;whiteSpace=wrap;rounded=0;" vertex="1" parent="1">
          <mxGeometry x="1075" y="-53" width="29" height="27" as="geometry" />
        </mxCell>
        <mxCell id="njAnbFwUIwRLpeYEv5zp-89" value="&lt;b&gt;&lt;font style=&quot;font-size: 14px;&quot;&gt;0&lt;/font&gt;&lt;/b&gt;" style="text;html=1;strokeColor=none;fillColor=none;align=center;verticalAlign=middle;whiteSpace=wrap;rounded=0;" vertex="1" parent="1">
          <mxGeometry x="1132" y="-53" width="29" height="27" as="geometry" />
        </mxCell>
        <mxCell id="njAnbFwUIwRLpeYEv5zp-90" value="&lt;font style=&quot;font-size: 18px;&quot;&gt;0&lt;/font&gt;" style="whiteSpace=wrap;html=1;aspect=fixed;strokeColor=#000000;strokeWidth=1;fillColor=none;gradientColor=#ffffff;" vertex="1" parent="1">
          <mxGeometry x="723" y="214" width="49" height="49" as="geometry" />
        </mxCell>
        <mxCell id="njAnbFwUIwRLpeYEv5zp-91" value="&lt;span style=&quot;font-size: 18px;&quot;&gt;1&lt;/span&gt;" style="whiteSpace=wrap;html=1;aspect=fixed;strokeColor=#000000;strokeWidth=1;fillColor=none;gradientColor=#ffffff;" vertex="1" parent="1">
          <mxGeometry x="780" y="214" width="49" height="49" as="geometry" />
        </mxCell>
        <mxCell id="njAnbFwUIwRLpeYEv5zp-92" value="&lt;span style=&quot;font-size: 18px;&quot;&gt;1&lt;/span&gt;" style="whiteSpace=wrap;html=1;aspect=fixed;strokeColor=#000000;strokeWidth=1;fillColor=none;gradientColor=#ffffff;" vertex="1" parent="1">
          <mxGeometry x="837" y="214" width="49" height="49" as="geometry" />
        </mxCell>
        <mxCell id="njAnbFwUIwRLpeYEv5zp-93" value="&lt;span style=&quot;font-size: 18px;&quot;&gt;0&lt;/span&gt;" style="whiteSpace=wrap;html=1;aspect=fixed;strokeColor=#000000;strokeWidth=1;fillColor=none;gradientColor=#ffffff;" vertex="1" parent="1">
          <mxGeometry x="894" y="214" width="49" height="49" as="geometry" />
        </mxCell>
        <mxCell id="njAnbFwUIwRLpeYEv5zp-94" value="&lt;span style=&quot;font-size: 18px;&quot;&gt;1&lt;/span&gt;" style="whiteSpace=wrap;html=1;aspect=fixed;strokeColor=#000000;strokeWidth=1;fillColor=none;gradientColor=#ffffff;" vertex="1" parent="1">
          <mxGeometry x="951" y="214" width="49" height="49" as="geometry" />
        </mxCell>
        <mxCell id="njAnbFwUIwRLpeYEv5zp-95" value="&lt;span style=&quot;font-size: 18px;&quot;&gt;0&lt;/span&gt;" style="whiteSpace=wrap;html=1;aspect=fixed;strokeColor=#000000;strokeWidth=1;fillColor=none;gradientColor=#ffffff;" vertex="1" parent="1">
          <mxGeometry x="1008" y="214" width="49" height="49" as="geometry" />
        </mxCell>
        <mxCell id="njAnbFwUIwRLpeYEv5zp-96" value="&lt;span style=&quot;font-size: 18px;&quot;&gt;1&lt;/span&gt;" style="whiteSpace=wrap;html=1;aspect=fixed;strokeColor=#000000;strokeWidth=1;fillColor=none;gradientColor=#ffffff;" vertex="1" parent="1">
          <mxGeometry x="1065" y="214" width="49" height="49" as="geometry" />
        </mxCell>
        <mxCell id="njAnbFwUIwRLpeYEv5zp-97" value="&lt;span style=&quot;font-size: 18px;&quot;&gt;0&lt;/span&gt;" style="whiteSpace=wrap;html=1;aspect=fixed;strokeColor=#000000;strokeWidth=1;fillColor=none;gradientColor=#ffffff;" vertex="1" parent="1">
          <mxGeometry x="1122" y="214" width="49" height="49" as="geometry" />
        </mxCell>
        <mxCell id="njAnbFwUIwRLpeYEv5zp-108" value="" style="endArrow=classic;html=1;rounded=0;fontSize=18;exitX=0.5;exitY=1;exitDx=0;exitDy=0;entryX=0.5;entryY=0;entryDx=0;entryDy=0;" edge="1" parent="1" source="njAnbFwUIwRLpeYEv5zp-74" target="njAnbFwUIwRLpeYEv5zp-91">
          <mxGeometry width="50" height="50" relative="1" as="geometry">
            <mxPoint x="743" y="42" as="sourcePoint" />
            <mxPoint x="686" y="231" as="targetPoint" />
          </mxGeometry>
        </mxCell>
        <mxCell id="njAnbFwUIwRLpeYEv5zp-110" value="" style="endArrow=classic;html=1;rounded=0;fontSize=18;exitX=0.5;exitY=1;exitDx=0;exitDy=0;entryX=0.5;entryY=0;entryDx=0;entryDy=0;" edge="1" parent="1" source="njAnbFwUIwRLpeYEv5zp-75" target="njAnbFwUIwRLpeYEv5zp-92">
          <mxGeometry width="50" height="50" relative="1" as="geometry">
            <mxPoint x="757.5" y="35" as="sourcePoint" />
            <mxPoint x="814.5" y="224" as="targetPoint" />
          </mxGeometry>
        </mxCell>
        <mxCell id="njAnbFwUIwRLpeYEv5zp-111" value="" style="endArrow=classic;html=1;rounded=0;fontSize=18;exitX=0.5;exitY=1;exitDx=0;exitDy=0;entryX=0.5;entryY=0;entryDx=0;entryDy=0;" edge="1" parent="1" source="njAnbFwUIwRLpeYEv5zp-76" target="njAnbFwUIwRLpeYEv5zp-93">
          <mxGeometry width="50" height="50" relative="1" as="geometry">
            <mxPoint x="767.5" y="45" as="sourcePoint" />
            <mxPoint x="824.5" y="234" as="targetPoint" />
          </mxGeometry>
        </mxCell>
        <mxCell id="njAnbFwUIwRLpeYEv5zp-112" value="" style="endArrow=classic;html=1;rounded=0;fontSize=18;exitX=0.5;exitY=1;exitDx=0;exitDy=0;entryX=0.5;entryY=0;entryDx=0;entryDy=0;" edge="1" parent="1" source="njAnbFwUIwRLpeYEv5zp-77" target="njAnbFwUIwRLpeYEv5zp-94">
          <mxGeometry width="50" height="50" relative="1" as="geometry">
            <mxPoint x="777.5" y="55" as="sourcePoint" />
            <mxPoint x="834.5" y="244" as="targetPoint" />
          </mxGeometry>
        </mxCell>
        <mxCell id="njAnbFwUIwRLpeYEv5zp-113" value="" style="endArrow=classic;html=1;rounded=0;fontSize=18;exitX=0.5;exitY=1;exitDx=0;exitDy=0;entryX=0.5;entryY=0;entryDx=0;entryDy=0;" edge="1" parent="1" source="njAnbFwUIwRLpeYEv5zp-78" target="njAnbFwUIwRLpeYEv5zp-95">
          <mxGeometry width="50" height="50" relative="1" as="geometry">
            <mxPoint x="787.5" y="65" as="sourcePoint" />
            <mxPoint x="844.5" y="254" as="targetPoint" />
          </mxGeometry>
        </mxCell>
        <mxCell id="njAnbFwUIwRLpeYEv5zp-114" value="" style="endArrow=classic;html=1;rounded=0;fontSize=18;exitX=0.5;exitY=1;exitDx=0;exitDy=0;entryX=0.5;entryY=0;entryDx=0;entryDy=0;" edge="1" parent="1" source="njAnbFwUIwRLpeYEv5zp-79" target="njAnbFwUIwRLpeYEv5zp-96">
          <mxGeometry width="50" height="50" relative="1" as="geometry">
            <mxPoint x="797.5" y="75" as="sourcePoint" />
            <mxPoint x="854.5" y="264" as="targetPoint" />
          </mxGeometry>
        </mxCell>
        <mxCell id="njAnbFwUIwRLpeYEv5zp-115" value="" style="endArrow=classic;html=1;rounded=0;fontSize=18;exitX=0.5;exitY=1;exitDx=0;exitDy=0;entryX=0.5;entryY=0;entryDx=0;entryDy=0;" edge="1" parent="1" source="njAnbFwUIwRLpeYEv5zp-80" target="njAnbFwUIwRLpeYEv5zp-97">
          <mxGeometry width="50" height="50" relative="1" as="geometry">
            <mxPoint x="807.5" y="85" as="sourcePoint" />
            <mxPoint x="864.5" y="274" as="targetPoint" />
          </mxGeometry>
        </mxCell>
        <mxCell id="njAnbFwUIwRLpeYEv5zp-116" value="&lt;font style=&quot;font-size: 18px;&quot; face=&quot;Times New Roman&quot;&gt;&lt;i&gt;To the left&lt;br&gt;&lt;/i&gt;&lt;/font&gt;" style="text;html=1;strokeColor=none;fillColor=none;align=center;verticalAlign=middle;whiteSpace=wrap;rounded=0;fontSize=18;" vertex="1" parent="1">
          <mxGeometry x="400" y="138" width="160" height="30" as="geometry" />
        </mxCell>
        <mxCell id="njAnbFwUIwRLpeYEv5zp-117" value="&lt;font style=&quot;font-size: 18px;&quot; face=&quot;Times New Roman&quot;&gt;&lt;i&gt;To the right&lt;br&gt;&lt;/i&gt;&lt;/font&gt;" style="text;html=1;strokeColor=none;fillColor=none;align=center;verticalAlign=middle;whiteSpace=wrap;rounded=0;fontSize=18;" vertex="1" parent="1">
          <mxGeometry x="591" y="138" width="160" height="30" as="geometry" />
        </mxCell>
        <mxCell id="njAnbFwUIwRLpeYEv5zp-118" value="&lt;font style=&quot;font-size: 18px;&quot; face=&quot;Times New Roman&quot;&gt;&lt;i&gt;(a)&lt;br&gt;&lt;/i&gt;&lt;/font&gt;" style="text;html=1;strokeColor=none;fillColor=none;align=center;verticalAlign=middle;whiteSpace=wrap;rounded=0;fontSize=18;" vertex="1" parent="1">
          <mxGeometry x="381" y="108" width="160" height="30" as="geometry" />
        </mxCell>
        <mxCell id="njAnbFwUIwRLpeYEv5zp-119" value="&lt;font style=&quot;font-size: 18px;&quot; face=&quot;Times New Roman&quot;&gt;&lt;i&gt;(b)&lt;br&gt;&lt;/i&gt;&lt;/font&gt;" style="text;html=1;strokeColor=none;fillColor=none;align=center;verticalAlign=middle;whiteSpace=wrap;rounded=0;fontSize=18;" vertex="1" parent="1">
          <mxGeometry x="614" y="108" width="160" height="30" as="geometry" />
        </mxCell>
      </root>
    </mxGraphModel>
  </diagram>
</mxfile>
